<svg width="30" height="30" viewBox="0 0 30 30" fill="none" xmlns="http://www.w3.org/2000/svg">
<path opacity="0.4" d="M15 27.5C21.9036 27.5 27.5 21.9036 27.5 15C27.5 8.09644 21.9036 2.5 15 2.5C8.09644 2.5 2.5 8.09644 2.5 15C2.5 21.9036 8.09644 27.5 15 27.5Z" fill="white"/>
<path d="M20.0375 14.3375L16.2875 10.5875C15.925 10.225 15.325 10.225 14.9625 10.5875C14.6 10.95 14.6 11.55 14.9625 11.9125L17.1125 14.0625H10.625C10.1125 14.0625 9.6875 14.4875 9.6875 15C9.6875 15.5125 10.1125 15.9375 10.625 15.9375H17.1125L14.9625 18.0875C14.6 18.45 14.6 19.05 14.9625 19.4125C15.15 19.6 15.3875 19.6875 15.625 19.6875C15.8625 19.6875 16.1 19.6 16.2875 19.4125L20.0375 15.6625C20.4 15.3 20.4 14.7 20.0375 14.3375Z" fill="white"/>
</svg>
