<svg width="24" height="24" viewBox="0 0 24 24" fill="none" xmlns="http://www.w3.org/2000/svg">
<path d="M18.69 11.53C18.12 11.38 17.45 11.3 16.65 11.3C15.54 11.3 15.13 11.57 14.56 12C14.53 12.02 14.5 12.05 14.47 12.08L13.52 13.09C12.72 13.93 11.28 13.94 10.48 13.08L9.52999 12.08C9.49999 12.05 9.46999 12.02 9.43999 12C8.86999 11.57 8.45999 11.3 7.34999 11.3C6.54999 11.3 5.87999 11.38 5.30999 11.53C2.92999 12.17 2.92999 14.06 2.92999 15.72V16.65C2.92999 19.16 2.92999 22 8.27999 22H15.72C19.27 22 21.07 20.2 21.07 16.65V15.72C21.07 14.06 21.07 12.17 18.69 11.53ZM14.33 18.4H9.66999C9.28999 18.4 8.97999 18.09 8.97999 17.7C8.97999 17.31 9.28999 17 9.66999 17H14.33C14.71 17 15.02 17.31 15.02 17.7C15.02 18.09 14.71 18.4 14.33 18.4Z" fill="white"/>
<path opacity="0.4" d="M14.79 2H9.20999C4.78999 2 4.78999 4.35 4.78999 6.42V12.21C4.78999 12.43 4.88999 12.63 5.05999 12.76C5.22999 12.89 5.45999 12.94 5.66999 12.88C6.11999 12.76 6.67999 12.7 7.34999 12.7C8.01999 12.7 8.15999 12.78 8.55999 13.08L9.46999 14.04C10.12 14.74 11.05 15.14 12.01 15.14C12.97 15.14 13.89 14.74 14.55 14.04L15.46 13.08C15.86 12.78 16 12.7 16.67 12.7C17.34 12.7 17.9 12.76 18.35 12.88C18.56 12.94 18.78 12.89 18.96 12.76C19.13 12.63 19.23 12.42 19.23 12.21V6.42C19.21 4.35 19.21 2 14.79 2Z" fill="white"/>
<path opacity="0.4" d="M15.02 17.7C15.02 18.09 14.71 18.4 14.33 18.4H9.67C9.29 18.4 8.98 18.09 8.98 17.7C8.98 17.31 9.29 17 9.67 17H14.33C14.71 17 15.02 17.31 15.02 17.7Z" fill="white"/>
</svg>
