<svg width="24" height="24" viewBox="0 0 24 24" fill="none" xmlns="http://www.w3.org/2000/svg">
<path opacity="0.4" d="M15 7.2V16.79C15 20 13 22 9.8 22H7.21C4.01 22 2.01 20 2.01 16.8V7.2C2 4 4 2 7.2 2H9.8C13 2 15 4 15 7.2Z" fill="#FF0055"/>
<path d="M18.43 8.12002L21.78 11.47C22.07 11.76 22.07 12.24 21.78 12.53L18.43 15.88C18.14 16.17 17.66 16.17 17.37 15.88C17.08 15.59 17.08 15.11 17.37 14.82L19.44 12.75H8.75C8.34 12.75 8 12.41 8 12C8 11.59 8.34 11.25 8.75 11.25H19.44L17.37 9.18002C17.22 9.03002 17.15 8.84002 17.15 8.65002C17.15 8.46002 17.22 8.26002 17.37 8.12002C17.66 7.82002 18.13 7.82002 18.43 8.12002Z" fill="#FF0055"/>
</svg>
