<svg width="100" height="100" viewBox="0 0 100 100" fill="none" xmlns="http://www.w3.org/2000/svg">
<path opacity="0.4" d="M50 91.6667C73.0119 91.6667 91.6667 73.0119 91.6667 50C91.6667 26.9881 73.0119 8.33334 50 8.33334C26.9881 8.33334 8.33334 26.9881 8.33334 50C8.33334 73.0119 26.9881 91.6667 50 91.6667Z" fill="#FF4C97"/>
<path d="M54.4167 50L64 40.4167C65.2083 39.2083 65.2083 37.2083 64 36C62.7917 34.7917 60.7917 34.7917 59.5833 36L50 45.5833L40.4167 36C39.2083 34.7917 37.2083 34.7917 36 36C34.7917 37.2083 34.7917 39.2083 36 40.4167L45.5833 50L36 59.5833C34.7917 60.7917 34.7917 62.7917 36 64C36.625 64.625 37.4167 64.9167 38.2083 64.9167C39 64.9167 39.7917 64.625 40.4167 64L50 54.4167L59.5833 64C60.2083 64.625 61 64.9167 61.7917 64.9167C62.5833 64.9167 63.375 64.625 64 64C65.2083 62.7917 65.2083 60.7917 64 59.5833L54.4167 50Z" fill="#FF4C97"/>
</svg>
