<svg width="100" height="100" viewBox="0 0 100 100" fill="none" xmlns="http://www.w3.org/2000/svg">
<path opacity="0.4" d="M75 78.5833H71.8333C68.5 78.5833 65.3333 79.875 63 82.2084L55.875 89.2501C52.625 92.4584 47.3333 92.4584 44.0833 89.2501L36.9583 82.2084C34.625 79.875 31.4167 78.5833 28.125 78.5833H25C18.0833 78.5833 12.5 73.0417 12.5 66.2084V20.75C12.5 13.9167 18.0833 8.37503 25 8.37503H75C81.9167 8.37503 87.5 13.9167 87.5 20.75V66.2084C87.5 73.0001 81.9167 78.5833 75 78.5833Z" fill="#884DFF"/>
<path d="M51.1667 62.3333C50.5417 62.5416 49.5 62.5416 48.8333 62.3333C43.4167 60.4583 31.25 52.75 31.25 39.625C31.25 33.8334 35.9167 29.1667 41.6667 29.1667C45.0833 29.1667 48.0833 30.7917 50 33.3333C51.9167 30.7917 54.9167 29.1667 58.3333 29.1667C64.0833 29.1667 68.75 33.8334 68.75 39.625C68.7083 52.75 56.5833 60.4583 51.1667 62.3333Z" fill="#884DFF"/>
</svg>
